  <svg width="72" height="81" viewBox="0 0 72 81" fill="#E12F6D" xmlns="http://www.w3.org/2000/svg">
<path d="M71.992 39.7515H71.9879C71.9879 34.8802 71.9879 30.0089 71.9879 25.1376C71.9879 21.5718 70.6173 18.7447 67.5473 16.7986C64.2168 14.6883 60.8062 12.7281 57.2452 11.0343C54.8305 9.88305 52.4018 9.94912 49.9951 11.0884C49.2416 11.4447 48.4741 11.7871 47.7567 12.2076C40.9595 16.1879 34.1763 20.1903 27.377 24.1686C25.303 25.3819 23.2169 26.5772 21.0988 27.7104C18.7482 28.9678 17.7102 30.9019 17.8184 33.5268C17.8865 35.1926 17.8785 36.8624 17.9526 38.5282C18.0769 41.2992 17.8965 44.0622 17.8324 46.8292C17.7763 49.2499 18.7642 51.0739 20.9465 52.2231C22.2751 52.9239 23.5856 53.6587 24.8841 54.4115C27.6555 56.0172 30.4109 57.655 33.1823 59.2608C35.0279 60.3299 36.8274 60.426 38.7512 59.2748C42.8451 56.8241 46.9872 54.4495 51.1533 52.123C53.2534 50.9497 54.2033 49.2339 54.1572 46.8893C54.1472 46.3547 54.1692 45.8222 54.1552 45.2876C54.069 42.052 53.9628 38.8185 54.1372 35.583C54.1953 34.4858 54.2073 33.3766 54.1151 32.2834C54.0029 30.952 53.2254 30.5676 52.025 31.1462C51.8447 31.2323 51.6724 31.3364 51.5 31.4365C47.6004 33.695 43.6908 35.9354 39.8072 38.2179C37.2502 39.7195 36.1902 42.1659 36.1902 44.9572C36.1902 45.728 35.9617 45.9943 35.2524 45.668C33.6372 44.9272 32.0701 44.1043 30.8237 42.7989C29.7616 41.6856 29.411 40.3962 29.6835 38.8446C30.1123 36.4119 31.7315 35.0504 33.7254 33.9412C38.7732 31.1342 43.821 28.3311 48.7467 25.3118C50.0231 24.529 51.2916 23.7321 52.7525 23.2816C55.7784 22.3466 60.5517 24.535 60.6278 28.5674C60.6438 29.4664 60.734 30.3653 60.732 31.2643C60.724 36.2357 60.6559 41.2071 60.7 46.1785C60.716 48.0786 60.8382 49.9647 60.5817 51.8667C60.3813 53.3543 59.7361 54.5056 58.5898 55.4266C57.5418 56.2675 56.3595 56.8882 55.1932 57.5389C50.0953 60.39 45.0234 63.2872 40.0357 66.3265C37.2723 68.0103 34.6171 67.9482 31.8477 66.2524C26.4672 62.9568 21.0186 59.7713 15.4518 56.8061C12.3918 55.1763 11.0111 52.8298 11.2516 49.4341C11.2936 48.8374 11.2596 48.2328 11.2616 47.6321C11.2796 43.0952 11.3437 38.5583 11.2957 34.0233C11.2736 32.0231 11.1313 30.035 11.4379 28.0368C11.6303 26.7834 12.1213 25.7523 13.0691 24.9274C14.1071 24.0224 15.2894 23.3297 16.4858 22.663C24.7379 18.0619 32.8717 13.2627 40.9595 8.38142C41.731 7.91691 42.5085 7.45441 43.3201 7.06399C44.827 6.3392 46.378 5.8867 48.0473 6.56744C48.3358 6.68557 48.7567 6.88379 48.925 6.46133C49.0793 6.07691 48.6625 5.90873 48.404 5.71452C48.3519 5.67447 48.2898 5.64444 48.2337 5.6104C46.2217 4.42311 44.1637 3.30589 42.2079 2.03051C38.1099 -0.640399 34.1021 -0.680442 29.926 1.9344C22.1448 6.8077 14.1432 11.3086 6.09952 15.7354C5.51639 16.0558 4.98335 16.4662 4.41424 16.8146C1.28614 18.7267 0.00965191 21.6278 0.00163628 25.1637C-0.0103872 30.3673 0.0477272 35.573 0.0497311 40.7767C0.051735 45.3476 0.0316949 49.9186 0.00163628 54.4896C-0.0284223 58.7442 1.76307 61.7995 5.5244 63.9579C11.9509 67.6459 18.5398 71.0476 24.828 74.9759C27.3169 76.5296 29.7717 78.1553 32.487 79.3186C34.4167 80.1455 36.3385 80.5139 38.4065 79.719C39.7832 79.1885 41.1198 78.5998 42.3843 77.851C45.8871 75.7747 49.3558 73.6384 52.8827 71.6062C57.5097 68.9393 62.1929 66.3725 66.8259 63.7176C69.3228 62.2881 71.2385 60.354 71.7054 57.3547C71.9058 56.0693 72.002 54.7719 72 53.4685C71.992 48.8975 71.998 44.3265 71.998 39.7556L71.992 39.7515Z" fill="url(#paint0_radial_145_4362)"/>
<path d="M35.6605 58.3133L36 45.6223C35.7275 45.8049 35.5754 45.7514 34.4805 45.2153C33.3945 44.6595 31.1399 43.6253 30 41.5556C30 41.5556 28.8059 56.6865 30 57.2918C31.194 57.897 32.9898 59.1712 34.1299 59.6142C34.9417 59.9296 35.6372 59.1839 35.6605 58.3133Z" fill="url(#paint1_linear_145_4362)" fill-opacity="0.5"/>
<defs>
<radialGradient id="paint0_radial_145_4362" cx="0" cy="0" r="1" gradientUnits="userSpaceOnUse" gradientTransform="translate(36 40.08) rotate(90) scale(40.08 36)">
<stop stop-color="#E12F6D"/>
<stop offset="1" stop-color="#E12F6D"/>
</radialGradient>
<linearGradient id="paint1_linear_145_4362" x1="30" y1="51.7138" x2="35.6492" y2="51.863" gradientUnits="userSpaceOnUse">
<stop stop-color="#E12F6D" stop-opacity="0"/>
<stop offset="1" stop-color="#E12F6D"/>
</linearGradient>
</defs>
</svg>
